<?xml version="1.0" encoding="UTF-8"?>
<svg id="Layer_1" xmlns="http://www.w3.org/2000/svg" version="1.1" viewBox="0 0 100 100">
  <!-- Generator: Adobe Illustrator 30.3.0, SVG Export Plug-In . SVG Version: 2.1.3 Build 182)  -->
  <defs>
    <style>
      .st0 {
        fill: #00ab4e;
      }

      .st1 {
        fill: #fff;
      }
    </style>
  </defs>
  <circle class="st0" cx="50" cy="50" r="50"/>
  <g>
    <path class="st1" d="M16.63,36.9c-.21,0-.42,0-.63.02,1.87,3.97,2.92,8.4,2.92,13.08s-1.05,9.11-2.92,13.08c.21,0,.42.02.63.02,7.23,0,13.1-5.86,13.1-13.1s-5.86-13.1-13.1-13.1Z"/>
    <path class="st1" d="M83.37,36.9c.21,0,.42,0,.63.02-1.87,3.97-2.92,8.4-2.92,13.08s1.05,9.11,2.92,13.08c-.21,0-.42.02-.63.02-7.23,0-13.1-5.86-13.1-13.1s5.86-13.1,13.1-13.1Z"/>
    <path class="st1" d="M21.97,72.35c-.1.18-.2.37-.3.55,4.37.36,8.74,1.67,12.79,4.01,4.05,2.34,7.37,5.46,9.87,9.07.11-.17.22-.35.33-.53,3.62-6.26,1.47-14.27-4.79-17.89-6.26-3.62-14.27-1.47-17.89,4.79Z"/>
    <path class="st1" d="M55.34,14.55c.1-.18.21-.36.33-.53,2.5,3.61,5.81,6.73,9.87,9.07,4.05,2.34,8.42,3.65,12.79,4.01-.1.18-.19.37-.3.55-3.62,6.26-11.63,8.41-17.89,4.79-6.26-3.62-8.41-11.63-4.79-17.89Z"/>
    <path class="st1" d="M55.34,85.45c.1.18.21.36.33.53,2.5-3.61,5.81-6.73,9.87-9.07,4.05-2.34,8.42-3.65,12.79-4.01-.1-.18-.19-.37-.3-.55-3.62-6.26-11.63-8.41-17.89-4.79-6.26,3.62-8.41,11.63-4.79,17.89Z"/>
    <path class="st1" d="M21.97,27.65c-.1-.18-.2-.37-.3-.55,4.37-.36,8.74-1.67,12.79-4.01,4.05-2.34,7.37-5.46,9.87-9.07.11.17.22.35.33.53,3.62,6.26,1.47,14.27-4.79,17.89-6.26,3.62-14.27,1.47-17.89-4.79Z"/>
  </g>
</svg>